#!OML:ASF F:\VICON\USERDATA\INSTALL\Justin_Nancy\Justin_Nancy.ASF
:FULLY-SPECIFIED
:DEGREES
16
root 0.802364 16.4037 -20.9808 -8.88252 -1.04881 0.877227
lowerback 12.6341 1.82181 -3.95228
upperback 2.81165 1.95389 1.17738
thorax -4.29605 1.01207 3.14934
lowerneck -15.4912 -4.37185 -10.3523
upperneck 17.8306 -5.26246 8.4369
head 8.61491 -2.34518 3.93554
rclavicle -6.55989e-015 7.35503e-015
rhumerus -47.0656 9.3978 -95.3312
rradius 115.183
rwrist -4.79591
rhand -9.2593 21.8162
rfingers 7.12502
rthumb 16.6968 -7.4857
lclavicle -6.55989e-015 7.35503e-015
lhumerus -50.731 -8.85489 89.7271
lradius 106.33
lwrist 38.9329
lhand -17.4758 8.88243
lfingers 7.12502
lthumb 8.7762 38.68
rfemur -14.2745 -1.45461 12.0118
rtibia 91.7301
rfoot -5.69869 -11.1663
rtoes 10.8131
lfemur -21.965 -1.21864 -23.9951
ltibia 53.8309
lfoot -16.1588 4.993
ltoes -4.52174
17
root 0.806511 16.3567 -20.5749 -8.77531 -1.04845 0.563869
lowerback 12.8076 1.56469 -3.41357
upperback 2.65524 1.67336 1.12105
thorax -4.51588 0.87323 2.82708
lowerneck -15.2977 -4.16382 -10.368
upperneck 18.0852 -4.97505 8.30438
head 8.63285 -2.22977 3.93492
rclavicle -6.56611e-015 1.59028e-015
rhumerus -48.6144 8.56082 -95.8242
rradius 114.335
rwrist -3.53653
rhand -9.33291 19.5957
rfingers 7.12502
rthumb 16.626 -9.71221
lclavicle -6.56611e-015 1.59028e-015
lhumerus -48.3748 -8.70669 89.2638
lradius 106.37
lwrist 37.5836
lhand -17.9876 8.66709
lfingers 7.12502
lthumb 8.28226 38.4847
rfemur -17.4115 -2.40749 12.5294
rtibia 91.5468
rfoot -6.48782 -11.0455
rtoes 10.1735
lfemur -21.1397 -1.2902 -23.7008
ltibia 54.9833
lfoot -17.0429 5.47991
ltoes -5.99609
18
root 0.815834 16.327 -20.1583 -8.70562 -1.03931 0.353208
lowerback 12.8879 1.28201 -3.05699
upperback 2.60071 1.3459 1.16672
thorax -4.58593 0.70909 2.72691
lowerneck -15.0242 -3.94643 -10.562
upperneck 17.8964 -4.61417 8.16615
head 8.48405 -2.09208 3.96397
rclavicle -1.13866e-014 -4.77083e-015
rhumerus -49.7161 8.50756 -96.0969
rradius 113.667
rwrist -2.7856
rhand -9.95157 17.5581
rfingers 7.12502
rthumb 16.0303 -11.7987
lclavicle -1.13866e-014 -4.77083e-015
lhumerus -46.1352 -8.00778 89.0594
lradius 106.743
lwrist 36.3019
lhand -17.8512 8.26319
lfingers 7.12502
lthumb 8.4139 38.0756
rfemur -20.2584 -3.29041 13.0953
rtibia 90.7074
rfoot -6.67677 -11.0747
rtoes 7.12089
lfemur -20.0834 -1.26858 -23.5636
ltibia 55.8893
lfoot -17.7353 5.90654
ltoes -3.92305
19
root 0.830793 16.3116 -19.7178 -8.8031 -1.69474 0.38651
lowerback 13.0688 1.25651 -2.80786
upperback 2.48737 1.33501 1.08178
thorax -4.79654 0.704115 2.49518
lowerneck -15.1985 -3.72746 -10.4562
upperneck 18.3927 -4.27891 7.86676
head 8.63946 -1.95644 3.89179
rclavicle -2.83889e-015 1.19271e-014
rhumerus -51.0708 8.51353 -96.5369
rradius 113.489
rwrist -2.72375
rhand -10.4778 15.801
rfingers 7.12502
rthumb 15.5235 -13.5958
lclavicle -2.83889e-015 1.19271e-014
lhumerus -44.3476 -7.22744 88.9166
lradius 107.597
lwrist 35.8309
lhand -17.0802 7.86305
lfingers 7.12502
lthumb 9.15792 37.6442
rfemur -22.7665 -3.40598 13.6072
rtibia 89.2829
rfoot -7.69341 -11.1443
rtoes 1.72316
lfemur -18.5182 -0.706824 -23.6524
ltibia 56.5195
lfoot -18.8117 6.52781
ltoes -2.74676
20
root 0.848595 16.3109 -19.2599 -9.03393 -2.8039 0.564266
lowerback 13.0883 1.34071 -2.76592
upperback 2.51999 1.44943 1.05533
thorax -4.77871 0.758638 2.42387
lowerneck -15.9136 -3.44776 -10.3275
upperneck 19.3435 -3.80101 7.45468
head 9.03505 -1.75915 3.80099
rclavicle 1.78285e-015 1.0138e-014
rhumerus -52.5428 8.71625 -96.9558
rradius 113.895
rwrist -2.98513
rhand -10.4966 14.2172
rfingers 7.12502
rthumb 15.5054 -15.181
lclavicle 1.78285e-015 1.0138e-014
lhumerus -42.614 -5.93158 88.9033
lradius 109.247
lwrist 35.9805
lhand -16.4336 8.19648
lfingers 7.12502
lthumb 9.78183 37.9493
rfemur -24.8809 -2.98664 14.1145
rtibia 87.3126
rfoot -9.03065 -11.1526
rtoes -0.861139
lfemur -16.5419 0.28699 -23.867
ltibia 56.8898
lfoot -20.0945 7.166
ltoes -3.6997
